<?xml version="1.0" encoding="UTF-8"?>
<svg width="512px" height="512px" viewBox="0 0 512 512" version="1.1" xmlns="http://www.w3.org/2000/svg" xmlns:xlink="http://www.w3.org/1999/xlink">
    <!-- Generator: Sketch 50.2 (55047) - http://www.bohemiancoding.com/sketch -->
    <title>wewreck</title>
    <desc>Created with Sketch.</desc>
    <defs></defs>
    <g id="wewreck" stroke="none" stroke-width="1" fill="none" fill-rule="evenodd">
        <path d="M136.622983,165.42548 C149.912851,156.608912 165.856691,151.473375 183,151.473375 C199.133003,151.473375 214.203748,156.021443 227.000029,163.905373 L227,81.4733753 L460,81.4733753 L460,434.473375 L410,434.473375 L410,364.473375 L333,364.473375 L333,434.473375 L227,434.473375 L227,307.041396 C214.20374,314.92531 199.132999,319.473375 183,319.473375 C136.608081,319.473375 99,281.865294 99,235.473375 C99,215.070026 106.274438,196.365713 118.371229,181.812519 L57.8576952,77 L78.6423048,65 L136.622983,165.42548 Z M227.738793,306.580921 L279.588521,343.805744 L279.588521,286.941263 L350.084842,280.236048 L296.645405,236.708191 L350.084842,178.403169 L279.588521,182.363974 L279.588521,127.817479 L230.744176,166.351906 C252.650156,181.511671 267,206.81673 267,235.473375 C267,265.420751 251.328375,291.707822 227.738793,306.580921 Z M378,136.473375 L378,169.473375 L410,169.473375 L410,136.473375 L378,136.473375 Z M378,207.473375 L378,240.473375 L410,240.473375 L410,207.473375 L378,207.473375 Z M378,278.473375 L378,311.473375 L410,311.473375 L410,278.473375 L378,278.473375 Z M155,98.4733753 C149.477153,98.4733753 145,93.9962228 145,88.4733753 C145,82.9505278 149.477153,78.4733753 155,78.4733753 C160.522847,78.4733753 165,82.9505278 165,88.4733753 C165,93.9962228 160.522847,98.4733753 155,98.4733753 Z M200,98.4733753 C194.477153,98.4733753 190,93.9962228 190,88.4733753 C190,82.9505278 194.477153,78.4733753 200,78.4733753 C205.522847,78.4733753 210,82.9505278 210,88.4733753 C210,93.9962228 205.522847,98.4733753 200,98.4733753 Z M178,137.473375 C172.477153,137.473375 168,132.996223 168,127.473375 C168,121.950528 172.477153,117.473375 178,117.473375 C183.522847,117.473375 188,121.950528 188,127.473375 C188,132.996223 183.522847,137.473375 178,137.473375 Z M63,222.473375 C57.4771525,222.473375 53,217.996223 53,212.473375 C53,206.950528 57.4771525,202.473375 63,202.473375 C68.5228475,202.473375 73,206.950528 73,212.473375 C73,217.996223 68.5228475,222.473375 63,222.473375 Z M66,269.473375 C60.4771525,269.473375 56,264.996223 56,259.473375 C56,253.950528 60.4771525,249.473375 66,249.473375 C71.5228475,249.473375 76,253.950528 76,259.473375 C76,264.996223 71.5228475,269.473375 66,269.473375 Z M63,330.473375 C57.4771525,330.473375 53,325.996223 53,320.473375 C53,314.950528 57.4771525,310.473375 63,310.473375 C68.5228475,310.473375 73,314.950528 73,320.473375 C73,325.996223 68.5228475,330.473375 63,330.473375 Z M111,330.473375 C105.477153,330.473375 101,325.996223 101,320.473375 C101,314.950528 105.477153,310.473375 111,310.473375 C116.522847,310.473375 121,314.950528 121,320.473375 C121,325.996223 116.522847,330.473375 111,330.473375 Z M88,368.473375 C82.4771525,368.473375 78,363.996223 78,358.473375 C78,352.950528 82.4771525,348.473375 88,348.473375 C93.5228475,348.473375 98,352.950528 98,358.473375 C98,363.996223 93.5228475,368.473375 88,368.473375 Z M65,407.473375 C59.4771525,407.473375 55,402.996223 55,397.473375 C55,391.950528 59.4771525,387.473375 65,387.473375 C70.5228475,387.473375 75,391.950528 75,397.473375 C75,402.996223 70.5228475,407.473375 65,407.473375 Z M133,368.473375 C127.477153,368.473375 123,363.996223 123,358.473375 C123,352.950528 127.477153,348.473375 133,348.473375 C138.522847,348.473375 143,352.950528 143,358.473375 C143,363.996223 138.522847,368.473375 133,368.473375 Z M110,407.473375 C104.477153,407.473375 100,402.996223 100,397.473375 C100,391.950528 104.477153,387.473375 110,387.473375 C115.522847,387.473375 120,391.950528 120,397.473375 C120,402.996223 115.522847,407.473375 110,407.473375 Z M133,446.473375 C127.477153,446.473375 123,441.996223 123,436.473375 C123,430.950528 127.477153,426.473375 133,426.473375 C138.522847,426.473375 143,430.950528 143,436.473375 C143,441.996223 138.522847,446.473375 133,446.473375 Z M178,368.473375 C172.477153,368.473375 168,363.996223 168,358.473375 C168,352.950528 172.477153,348.473375 178,348.473375 C183.522847,348.473375 188,352.950528 188,358.473375 C188,363.996223 183.522847,368.473375 178,368.473375 Z M155,407.473375 C149.477153,407.473375 145,402.996223 145,397.473375 C145,391.950528 149.477153,387.473375 155,387.473375 C160.522847,387.473375 165,391.950528 165,397.473375 C165,402.996223 160.522847,407.473375 155,407.473375 Z M178,446.473375 C172.477153,446.473375 168,441.996223 168,436.473375 C168,430.950528 172.477153,426.473375 178,426.473375 C183.522847,426.473375 188,430.950528 188,436.473375 C188,441.996223 183.522847,446.473375 178,446.473375 Z" id="Combined-Shape" fill="#000000"></path>
    </g>
</svg>